<?xml version="1.0" encoding="UTF-8" standalone="no"?><!DOCTYPE svg PUBLIC "-//W3C//DTD SVG 1.1//EN" "http://www.w3.org/Graphics/SVG/1.1/DTD/svg11.dtd"><svg width="100%" height="100%" viewBox="0 0 703 701" version="1.1" xmlns="http://www.w3.org/2000/svg" xmlns:xlink="http://www.w3.org/1999/xlink" xml:space="preserve" xmlns:serif="http://www.serif.com/" style="fill-rule:evenodd;clip-rule:evenodd;stroke-linecap:round;stroke-linejoin:round;stroke-miterlimit:10;"><rect id="stacks-on-top-of-your-existing-protection" serif:id="stacks on top of your existing protection" x="0" y="0.488" width="702.338" height="699.7" style="fill:none;"/><g id="Layer-1" serif:id="Layer 1"><path d="M274.539,259.626l-0,-51.908l228.904,-0l-0,198.454l1.55,58.116l-55.783,0" style="fill:none;fill-rule:nonzero;stroke:#e76e38;stroke-width:17.46px;"/><path d="M449.208,516.193l-228.905,0l-1.55,-58.116l0,-198.45l228.905,-0l-0,198.45l1.55,58.116Z" style="fill:none;fill-rule:nonzero;stroke:#e76e38;stroke-width:17.46px;"/><path d="M314.436,320.55c-0,-16.365 -13.285,-29.65 -29.648,-29.65c-16.363,-0 -29.648,13.285 -29.648,29.65c0,16.364 13.285,29.65 29.648,29.65c16.363,-0 29.648,-13.286 29.648,-29.65Z" style="fill:none;stroke:#e76e38;stroke-width:17.46px;"/><path d="M258.24,389.094l153.033,0" style="fill:none;fill-rule:nonzero;stroke:#e76e38;stroke-width:17.46px;"/><path d="M258.24,427.991l153.033,-0" style="fill:none;fill-rule:nonzero;stroke:#e76e38;stroke-width:17.46px;"/><path d="M218.755,184.481l-0,42.817" style="fill:none;fill-rule:nonzero;stroke:#e76e38;stroke-width:17.46px;"/><path d="M240.162,205.889l-42.817,-0" style="fill:none;fill-rule:nonzero;stroke:#e76e38;stroke-width:17.46px;"/></g></svg>